#N canvas 0 50 1366 686 10;
#X msg 401 210 bang;
#X obj 271 299 bonk~;
#X msg 413 30 learn 1;
#X msg 413 90 learn 0;
#X msg 401 270 print;
#X obj 106 87 adc~;
#X msg 413 60 learn 10;
#X msg 413 120 forget;
#X msg 413 150 write templates.txt;
#X msg 377 -30 mask 4 0.7;
#X msg 401 240 debug 0;
#X obj 399 467 s bonk-cooked;
#X obj 107 -11 dac~;
#X msg 413 180 read templates.txt;
#X obj 589 27 bng 15 250 50 0 empty learnOn learnOn 17 7 0 10 -262144
-1 -1;
#X obj 589 62 bng 15 250 50 0 empty learnOff learnOff 17 7 0 10 -262144
-1 -1;
#X obj 589 97 bng 15 250 50 0 empty forgetTemplate forgetTemplate 17
7 0 10 -262144 -1 -1;
#X obj 589 132 bng 15 250 50 0 empty writeTemplates writeTemplates
17 7 0 10 -262144 -1 -1;
#X obj 590 168 bng 15 250 50 0 empty readTemplates readTemplates 17
7 0 10 -262144 -1 -1;
#X msg 831 -24 \; pd dsp 0 \;;
#X obj 767 -77 bng 15 250 50 0 empty on on 17 7 0 10 -262144 -1 -1
;
#X obj 769 -14 bng 15 250 50 0 empty off off 17 7 0 10 -262144 -1 -1
;
#X msg 833 -78 \; pd dsp 1 \;;
#X obj 292 467 print cooked;
#X obj 265 -85 loadbang;
#X msg 377 0 debounce 0;
#X floatatom 131 195 5 0 0 0 - - -, f 5;
#X obj 131 133 r lowpass;
#X obj 199 133 r highpass;
#X floatatom 200 189 5 0 0 0 - - -, f 5;
#X msg 199 162 100;
#X msg 131 159 1000;
#X obj 107 269 hip~ 100;
#X msg 377 -90 thresh 6 200;
#X floatatom 1050 151 10 0 0 0 - - -, f 10;
#X msg 378 -60 minvel 10;
#X obj 352 333 sigmund~ env, f 13;
#X obj 1050 84 snapshot~;
#X obj 1050 123 * 10000;
#X obj 1115 45 metro 1;
#X floatatom 622 376 5 0 0 3 pitch - -, f 5;
#X floatatom 671 376 5 0 0 3 loudness(dB) - -, f 5;
#X obj 618 318 fiddle~;
#X obj 618 281 bng 15 250 50 0 empty empty empty 17 7 0 10 -262144
-1 -1;
#X msg 672 283 auto 1;
#X msg 672 256 auto 0;
#X obj 292 402 pack f f f f f;
#X obj 668 226 loadbang;
#X obj 292 441 list;
#N canvas 0 50 450 250 (subpatch) 0;
#X array data 512 float 0;
#X coords 0 1 511 0 400 200 1 0 0;
#X restore 945 204 graph;
#N canvas 0 50 1366 686 plots 1;
#X obj 467 -12619 rfft~;
#X obj 490 -12570 *~;
#X obj 458 -12570 *~;
#X obj 472 -12533 +~;
#X obj 473 -12506 sqrt~;
#N canvas 0 50 450 250 (subpatch) 0;
#X array magnitude 512 float 0;
#X coords 0 1 512 0 500 200 1 0 0;
#X restore -256 -12615 graph;
#X obj 598 -12647 loadbang;
#X obj 568 -12542 s magnitude;
#X obj 467 -12660 inlet~;
#X obj 527 -12476 bng 15 250 50 0 empty getMagnitude getMagnitude 17
7 0 10 -262144 -1 -1;
#X obj 467 -12701 block~ 1024 1;
#X obj 473 -12432 /~ 511;
#X obj 612 -12387 tabwrite~ magnitude;
#X obj 642 -12542 s data;
#X msg 598 -12609 xticks 0 64 1 \, yticks 0 0.25 1 \, xlabel -0.045
0 128 256 384 512 \, ylabel -6 0 1;
#N canvas 0 50 450 250 (subpatch) 0;
#X array envelope 512 float 1;
#A 0 0 0 0 0 0 0 0 0 0 0 0 0 0 0 0 0 0 0 0 0 0 0 0 0 0 0 0 0 0 0 0
0 0 0 0 0 0 0 0 0 0 0 0 0 0 0 0 0 0 0 0 0 0 0 0 0 0 0 0 0 0 0 0 0 0
0 0 0 0 0 0 0 0 0 0 0 0 0 0 0 0 0 0 0 0 0 0 0 0 0 0 0 0 0 0 0 0 0 0
0 0 0 0 0 0 0 0 0 0 0 0 0 0 0 0 0 0 0 0 0 0 0 0 0 0 0 0 0 0 0 0 0 0
0 0 0 0 0 0 0 0 0 0 0 0 0 0 0 0 0 0 0 0 0 0 0 0 0 0 0 0 0 0 0 0 0 0
0 0 0 0 0 0 0 0 0 0 0 0 0 0 0 0 0 0 0 0 0 0 0 0 0 0 0 0 0 0 0 0 0 0
0 0 0 0 0 0 0 0 0 0 0 0 0 0 0 0 0 0 0 0 0 0 0 0 0 0 0 0 0 0 0 0 0 0
0 0 0 0 0 0 0 0 0 0 0 0 0 0 0 0 0 0 0 0 0 0 0 0 0 0 0 0 0 0 0 0 0 0
0 0 0 0 0 0 0 0 0 0 0 0 0 0 0 0 0 0 0 0 0 0 0 0 0 0 0 0 0 0 0 0 0 0
0 0 0 0 0 0 0 0 0 0 0 0 0 0 0 0 0 0 0 0 0 0 0 0 0 0 0 0 0 0 0 0 0 0
0 0 0 0 0 0 0 0 0 0 0 0 0 0 0 0 0 0 0 0 0 0 0 0 0 0 0 0 0 0 0 0 0 0
0 0 0 0 0 0 0 0 0 0 0 0 0 0 0 0 0 0 0 0 0 0 0 0 0 0 0 0 0 0 0 0 0 0
0 0 0 0 0 0 0 0 0 0 0 0 0 0 0 0 0 0 0 0 0 0 0 0 0 0 0 0 0 0 0 0 0 0
0 0 0 0 0 0 0 0 0 0 0 0 0 0 0 0 0 0 0 0 0 0 0 0 0 0 0 0 0 0 0 0 0 0
0 0 0 0 0 0 0 0 0 0 0 0 0 0 0 0 0 0 0 0 0 0 0 0 0 0 0 0 0 0 0 0 0 0
0 0 0 0 0;
#X coords 0 1 511 0 500 200 1 0 0;
#X restore -256 -12615 graph;
#X obj 350 -12404 ifft~;
#X obj 383 -12361 *~;
#X obj 351 -12361 *~;
#X obj 365 -12324 +~;
#X obj 366 -12297 sqrt~;
#X obj 473 -12432 /~ 511;
#X obj 296 -12127 tabwrite~ array1;
#X obj 367 -12260 /~ 20;
#X obj 368 -12211 tabsend~ envelope;
#X obj 475 -12387 tabsend~ magnitude;
#X obj 473 -12473 *~ 10;
#X obj 503 -12272 tabwrite~ envelope;
#X obj 527 -12437 metro 10;
#X connect 0 0 2 0;
#X connect 0 0 2 1;
#X connect 0 1 1 0;
#X connect 0 1 1 1;
#X connect 1 0 3 1;
#X connect 2 0 3 0;
#X connect 3 0 4 0;
#X connect 4 0 26 0;
#X connect 6 0 14 0;
#X connect 6 0 9 0;
#X connect 8 0 0 0;
#X connect 9 0 28 0;
#X connect 11 0 16 0;
#X connect 11 0 12 0;
#X connect 14 0 7 0;
#X connect 14 0 13 0;
#X connect 16 0 18 0;
#X connect 16 0 18 1;
#X connect 16 1 17 0;
#X connect 16 1 17 1;
#X connect 17 0 19 1;
#X connect 18 0 19 0;
#X connect 19 0 20 0;
#X connect 20 0 23 0;
#X connect 23 0 27 0;
#X connect 26 0 11 0;
#X connect 28 0 12 0;
#X connect 28 0 27 0;
#X restore 107 399 pd plots;
#X obj 812 125 bng 15 250 50 0 empty getWave getWave 17 7 0 10 -262144
-1 -1;
#X obj 812 191 tabwrite~ data;
#X obj 106 242 lop~ 5000;
#X obj 813 156 metro 10;
#X connect 0 0 1 0;
#X connect 1 1 46 0;
#X connect 1 1 43 0;
#X connect 2 0 1 0;
#X connect 3 0 1 0;
#X connect 4 0 1 0;
#X connect 5 0 53 0;
#X connect 6 0 1 0;
#X connect 7 0 1 0;
#X connect 8 0 1 0;
#X connect 9 0 1 0;
#X connect 10 0 1 0;
#X connect 13 0 1 0;
#X connect 14 0 6 0;
#X connect 15 0 3 0;
#X connect 16 0 7 0;
#X connect 17 0 8 0;
#X connect 18 0 13 0;
#X connect 20 0 22 0;
#X connect 21 0 19 0;
#X connect 24 0 35 0;
#X connect 25 0 1 0;
#X connect 26 0 53 1;
#X connect 27 0 31 0;
#X connect 27 0 26 0;
#X connect 28 0 30 0;
#X connect 28 0 29 0;
#X connect 29 0 32 1;
#X connect 32 0 1 0;
#X connect 32 0 36 0;
#X connect 32 0 42 0;
#X connect 32 0 50 0;
#X connect 33 0 1 0;
#X connect 35 0 1 0;
#X connect 36 0 46 3;
#X connect 37 0 38 0;
#X connect 38 0 34 0;
#X connect 39 0 37 0;
#X connect 42 2 40 0;
#X connect 42 3 41 0;
#X connect 42 3 46 4;
#X connect 43 0 42 0;
#X connect 45 0 42 0;
#X connect 46 0 11 0;
#X connect 46 0 48 0;
#X connect 47 0 45 0;
#X connect 48 0 23 0;
#X connect 51 0 54 0;
#X connect 53 0 32 0;
#X connect 54 0 52 0;
